<svg width="61" height="16" viewBox="0 0 61 16" xmlns="http://www.w3.org/2000/svg"><g fill="#fff"><path d="M12.124 11.346c0 3.128-2.709 4.579-5.997 4.579-3.224 0-6.126-1.902-6.126-5.449h3.418c0 1.967 1.225 2.676 2.902 2.676 1.386 0 2.451-.451 2.451-1.741 0-1.419-1.516-1.515-4.675-2.741-2.096-.806-3.579-1.58-3.579-4.192 0-2.838 2.58-4.353 5.643-4.353 3.192 0 5.739 2.16 5.739 5.095h-3.418c0-1.419-.709-2.321-2.418-2.321-1.193 0-2.16.581-2.16 1.644 0 1.29 1.386 1.451 4.127 2.515 2.096.806 4.095 1.548 4.095 4.288"/><path d="M25.848 8.025c0-2.58-1.741-4.772-4.45-4.772-2.644 0-4.385 2.192-4.385 4.772s1.741 4.772 4.385 4.772c2.709 0 4.45-2.192 4.45-4.772zm3.515-7.513v15.026h-3.515v-2.031c-.935 1.515-2.902 2.418-4.643 2.418-4.578 0-7.706-3.643-7.706-7.9 0-4.256 3.128-7.9 7.706-7.9 1.741 0 3.708.903 4.643 2.418v-2.031h3.515z"/><path d="M34.635.512l4.127 9.995 4.192-9.995h3.773l-6.803 15.026h-2.354l-6.707-15.026z"/><path d="M50.088 6.477h7.352c0-2.096-1.516-3.418-3.644-3.418-2.064 0-3.708 1.193-3.708 3.418zm-.032 2.612c.032 2.16 1.096 3.901 3.934 3.901 1.999 0 2.741-.903 3.192-1.967h3.547c-.484 2.579-2.902 4.901-6.739 4.901-5.062 0-7.513-3.805-7.513-7.9 0-4.514 2.676-7.9 7.416-7.9 3.901 0 6.965 2.934 6.965 6.771 0 .516 0 1.225-.161 2.192h-10.64z"/></g></svg>